<svg width="18" height="24" viewBox="0 0 18 24" fill="none" xmlns="http://www.w3.org/2000/svg">
<path d="M0 20.1726V18.4816H1.55396V10.3515C1.55396 8.52595 2.13545 6.91176 3.29841 5.50889C4.4614 4.10605 5.95187 3.2562 7.76981 2.95936V1.23578C7.76981 0.885552 7.88769 0.592033 8.12344 0.35522C8.35916 0.118406 8.65135 0 9 0C9.34865 0 9.64084 0.118406 9.87656 0.35522C10.1123 0.592033 10.2302 0.885552 10.2302 1.23578V2.95936C12.0481 3.2562 13.5386 4.09923 14.7016 5.48844C15.8646 6.87762 16.446 8.49864 16.446 10.3515V18.4816H18V20.1726H0ZM8.99314 24C8.42495 24 7.93706 23.7978 7.52947 23.3935C7.1219 22.9892 6.91811 22.4942 6.91811 21.9087H11.0819C11.0819 22.5007 10.88 22.9973 10.4761 23.3984C10.0722 23.7995 9.57792 24 8.99314 24ZM3.23736 18.4816H14.7626V10.3515C14.7626 8.73378 14.2048 7.36457 13.0891 6.24385C11.9735 5.12316 10.6104 4.56281 9 4.56281C7.38958 4.56281 6.02654 5.12316 4.91088 6.24385C3.7952 7.36457 3.23736 8.73378 3.23736 10.3515V18.4816Z" fill="black"/>
</svg>
