<svg width="28" height="28" viewBox="0 0 28 28" fill="none" xmlns="http://www.w3.org/2000/svg">
<circle cx="14" cy="14" r="14" fill="#683CED"/>
<path d="M21 17.4286V11.1429C21 10.275 20.3036 9.57143 19.4444 9.57143H17.5C17.0704 9.57143 16.7222 9.21965 16.7222 8.78571C16.7222 8.35178 16.374 8 15.9444 8H12.0556C11.626 8 11.2778 8.35178 11.2778 8.78571C11.2778 9.21965 10.9296 9.57143 10.5 9.57143H8.55556C7.69645 9.57143 7 10.275 7 11.1429V17.4286C7 18.2964 7.69645 19 8.55556 19H19.4444C20.3036 19 21 18.2964 21 17.4286Z" stroke="white"/>
<path d="M16.3333 14.2857C16.3333 15.5875 15.2887 16.6429 14 16.6429C12.7113 16.6429 11.6667 15.5875 11.6667 14.2857C11.6667 12.9839 12.7113 11.9286 14 11.9286C15.2887 11.9286 16.3333 12.9839 16.3333 14.2857Z" stroke="white"/>
</svg>
