<svg width="48" height="48" viewBox="0 0 48 48" fill="none" xmlns="http://www.w3.org/2000/svg">
<g clip-path="url(#clip0_1284_1017)">
<path d="M16.0578 48.3612C18.1955 48.3604 20.2454 47.5109 21.757 45.9993C23.2685 44.4877 24.118 42.4379 24.1188 40.3002V32.2422H16.0578C13.9473 32.2829 11.9369 33.1499 10.4586 34.6569C8.98042 36.164 8.15234 38.1907 8.15234 40.3017C8.15234 42.4127 8.98042 44.4394 10.4586 45.9464C11.9369 47.4534 13.9473 48.3205 16.0578 48.3612Z" fill="#48BA7F"/>
<path d="M8 24.1782C8 22.0408 8.84887 19.9909 10.36 18.4793C11.871 16.9676 13.9206 16.118 16.058 16.1172H24.119V32.2392H16.058C13.9206 32.2384 11.871 31.3888 10.36 29.8771C8.84887 28.3655 8 26.3156 8 24.1782Z" fill="#8162AA"/>
<path d="M8 8.061C8 5.92361 8.84887 3.87372 10.36 2.36207C11.871 0.850428 13.9206 0.000795456 16.058 0H24.119V16.119H16.058C13.9211 16.1182 11.872 15.269 10.361 13.758C8.85002 12.247 8.0008 10.1979 8 8.061Z" fill="#F05023"/>
<path d="M24.1172 0H32.1782C34.2888 0.0407221 36.2992 0.907742 37.7774 2.41476C39.2556 3.92177 40.0837 5.94852 40.0837 8.0595C40.0837 10.1705 39.2556 12.1972 37.7774 13.7042C36.2992 15.2113 34.2888 16.0783 32.1782 16.119H24.1172V0Z" fill="#F37264"/>
<path d="M40.2392 24.1782C40.2392 25.7726 39.7663 27.3313 38.8805 28.657C37.9946 29.9826 36.7354 31.0158 35.2623 31.6259C33.7892 32.2359 32.1682 32.3954 30.6045 32.0841C29.0407 31.7728 27.6044 31.0048 26.4771 29.8771C25.3499 28.7495 24.5824 27.3129 24.2717 25.749C23.961 24.1851 24.1211 22.5642 24.7317 21.0913C25.3422 19.6184 26.3759 18.3596 27.7019 17.4743C29.0279 16.5889 30.5867 16.1166 32.1812 16.1172C34.3186 16.118 36.3682 16.9676 37.8792 18.4793C39.3903 19.9909 40.2392 22.0408 40.2392 24.1782Z" fill="#47B8E9"/>
</g>
<defs>
<clipPath id="clip0_1284_1017">
<rect width="48" height="48" fill="white"/>
</clipPath>
</defs>
</svg>
