<svg width="25" height="24" viewBox="0 0 25 24" fill="none" xmlns="http://www.w3.org/2000/svg">
<path d="M11.2888 24V21.3961C8.86689 21.1405 6.88072 20.2369 5.33027 18.6854C3.77984 17.1339 2.87607 15.1642 2.61894 12.7761H0V11.2239H2.61894C2.87607 8.83583 3.77984 6.86605 5.33027 5.31456C6.88072 3.76309 8.86689 2.85954 11.2888 2.60389V0H12.8499V2.60389C15.2718 2.85954 17.258 3.76309 18.8085 5.31456C20.3589 6.86605 21.2627 8.83583 21.5198 11.2239H24.1387V12.7761H21.5198C21.2627 15.1642 20.3589 17.1339 18.8085 18.6854C17.258 20.2369 15.2718 21.1405 12.8499 21.3961V24H11.2888ZM12.0694 19.8806C14.2711 19.8806 16.1425 19.1145 17.6838 17.5821C19.225 16.0498 19.9956 14.1891 19.9956 12C19.9956 9.81093 19.225 7.95023 17.6838 6.41788C16.1425 4.88554 14.2711 4.11936 12.0694 4.11936C9.86765 4.11936 7.99618 4.88554 6.45498 6.41788C4.91378 7.95023 4.14318 9.81093 4.14318 12C4.14318 14.1891 4.91378 16.0498 6.45498 17.5821C7.99618 19.1145 9.86765 19.8806 12.0694 19.8806ZM12.0694 15.7015C11.0336 15.7015 10.1542 15.342 9.43108 14.6231C8.70802 13.9042 8.34649 13.0298 8.34649 12C8.34649 10.9702 8.70802 10.0958 9.43108 9.37688C10.1542 8.65797 11.0336 8.29852 12.0694 8.29852C13.1052 8.29852 13.9846 8.65797 14.7076 9.37688C15.4307 10.0958 15.7922 10.9702 15.7922 12C15.7922 13.0298 15.4307 13.9042 14.7076 14.6231C13.9846 15.342 13.1052 15.7015 12.0694 15.7015ZM12.0694 14.3582C12.7216 14.3582 13.28 14.1273 13.7445 13.6655C14.209 13.2037 14.4412 12.6485 14.4412 12C14.4412 11.3515 14.209 10.7963 13.7445 10.3345C13.28 9.87268 12.7216 9.64178 12.0694 9.64178C11.4171 9.64178 10.8587 9.87268 10.3942 10.3345C9.92975 10.7963 9.69751 11.3515 9.69751 12C9.69751 12.6485 9.92975 13.2037 10.3942 13.6655C10.8587 14.1273 11.4171 14.3582 12.0694 14.3582Z" fill="black"/>
</svg>
