<svg width="20" height="24" viewBox="0 0 20 24" fill="none" xmlns="http://www.w3.org/2000/svg">
<path d="M9.69388 11.393C10.2791 11.393 10.7771 11.192 11.1877 10.7902C11.5983 10.3884 11.8036 9.90533 11.8036 9.34105C11.8036 8.77678 11.5952 8.2967 11.1784 7.90081C10.7617 7.50492 10.2607 7.30697 9.67543 7.30697C9.09017 7.30697 8.59225 7.50788 8.18165 7.9097C7.77105 8.31155 7.56575 8.7946 7.56575 9.35887C7.56575 9.92316 7.77413 10.4032 8.19088 10.7991C8.60765 11.195 9.10865 11.393 9.69388 11.393ZM9.68465 20.9532C12.1973 18.8336 14.154 16.7678 15.5548 14.7557C16.9556 12.7436 17.656 10.9694 17.656 9.43305C17.656 7.20105 16.9036 5.34417 15.3989 3.8624C13.8942 2.38063 11.9894 1.63975 9.68465 1.63975C7.37986 1.63975 5.47512 2.38063 3.97041 3.8624C2.46571 5.34417 1.71335 7.20105 1.71335 9.43305C1.71335 10.9694 2.41374 12.7436 3.81453 14.7557C5.21533 16.7678 7.17204 18.8336 9.68465 20.9532ZM9.68465 23.1403C6.45615 20.4938 4.03492 18.0307 2.42095 15.751C0.806983 13.4713 0 11.3653 0 9.43305C0 6.83939 0.901472 4.6188 2.70442 2.77128C4.50734 0.92376 6.82859 0 9.66818 0C12.5078 0 14.8345 0.92376 16.6484 2.77128C18.4623 4.6188 19.3693 6.83939 19.3693 9.43305C19.3693 11.3653 18.568 13.4666 16.9653 15.7368C15.3625 18.0071 12.9357 20.4749 9.68465 23.1403Z" fill="black"/>
</svg>
