<svg width="61" height="58" viewBox="0 0 61 58" fill="none" xmlns="http://www.w3.org/2000/svg">
<g clip-path="url(#clip0_946_753)">
<path d="M46.4074 31.1578L61 24.1805L44.7206 22.9329L56.6359 13.2868L42.4021 15.5421L45.2278 0L32.6522 14.6961L29.7667 3.63599L27.6468 15.2854L10.2644 3.47201L19.7607 19.2612L6.76635 18.5792L19.2702 27.0751L0 30.5304L19.6315 34.0547L6.85248 49.2903L26.1083 38.3704L20.1292 58L33.3221 42.5815L50.3337 53.941L42.4715 37.4721L54.9179 39.2212L46.4074 31.1578Z" fill="#5B1FD9"/>
<path d="M33.4823 23.9243C34.37 23.9243 35.1237 24.9225 35.3964 26.3127H36.3008C35.9276 24.1002 34.8055 22.4961 33.4823 22.4961C32.1592 22.4961 31.0395 24.1002 30.6638 26.3127H31.5682C31.841 24.9248 32.5947 23.9243 33.4823 23.9243Z" fill="white"/>
<path d="M36.3918 26.999H35.4898C35.5017 27.1511 35.5089 27.3056 35.5089 27.4624C35.5089 29.4159 34.6021 31.001 33.4824 31.001C32.3626 31.001 31.4558 29.4159 31.4558 27.4624C31.4558 27.3056 31.463 27.1511 31.4749 26.999H30.5729C30.5418 27.3032 30.5275 27.6145 30.5275 27.9354C30.5275 30.9416 31.8506 33.3775 33.48 33.3775C35.1093 33.3775 36.4349 30.9392 36.4349 27.9354C36.4349 27.6145 36.4205 27.3032 36.3894 26.999H36.3918Z" fill="white"/>
<path d="M33.4823 23.9248C32.5947 23.9248 31.841 24.9229 31.5682 26.3132H35.3964C35.1237 24.9253 34.37 23.9248 33.4823 23.9248Z" fill="white"/>
<path d="M31.4558 27.4624C31.4558 29.4159 32.3626 31.001 33.4824 31.001C34.6021 31.001 35.5089 29.4159 35.5089 27.4624C35.5089 27.3056 35.5017 27.1511 35.4898 26.999H31.4773C31.4654 27.1511 31.4582 27.3056 31.4582 27.4624H31.4558Z" fill="black"/>
<path d="M35.4898 26.9993H36.3918C36.3703 26.764 36.3416 26.5359 36.3009 26.3125H35.3965C35.4396 26.5335 35.4707 26.7617 35.4898 26.9993Z" fill="black"/>
<path d="M31.5682 26.3125H30.6638C30.6255 26.5359 30.5944 26.764 30.5729 26.9993H31.4749C31.4916 26.7617 31.5227 26.5311 31.5682 26.3125Z" fill="black"/>
<path d="M31.5683 26.3125C31.5252 26.5335 31.4941 26.7617 31.475 26.9993H35.4874C35.4707 26.7617 35.4396 26.5311 35.3941 26.3125H31.5659H31.5683Z" fill="black"/>
<path d="M39.2869 23.9243C40.1746 23.9243 40.9282 24.9225 41.201 26.3127H42.1054C41.7322 24.1002 40.61 22.4961 39.2869 22.4961C37.9638 22.4961 36.844 24.1002 36.4684 26.3127H37.3728C37.6456 24.9248 38.3992 23.9243 39.2869 23.9243Z" fill="white"/>
<path d="M42.1939 26.999H41.2919C41.3039 27.1511 41.311 27.3056 41.311 27.4624C41.311 29.4159 40.4042 31.001 39.2845 31.001C38.1647 31.001 37.2579 29.4159 37.2579 27.4624C37.2579 27.3056 37.2651 27.1511 37.2771 26.999H36.3751C36.3439 27.3032 36.3296 27.6145 36.3296 27.9354C36.3296 30.9416 37.6527 33.3775 39.2821 33.3775C40.9115 33.3775 42.237 30.9392 42.237 27.9354C42.237 27.6145 42.2226 27.3032 42.1915 26.999H42.1939Z" fill="white"/>
<path d="M39.2869 23.9248C38.3992 23.9248 37.6456 24.9229 37.3728 26.3132H41.201C40.9282 24.9253 40.1746 23.9248 39.2869 23.9248Z" fill="white"/>
<path d="M37.2604 27.4624C37.2604 29.4159 38.1672 31.001 39.2869 31.001C40.4067 31.001 41.3135 29.4159 41.3135 27.4624C41.3135 27.3056 41.3063 27.1511 41.2943 26.999H37.2819C37.2699 27.1511 37.2628 27.3056 37.2628 27.4624H37.2604Z" fill="black"/>
<path d="M41.2919 26.9993H42.1939C42.1724 26.764 42.1437 26.5359 42.103 26.3125H41.1986C41.2417 26.5335 41.2728 26.7617 41.2919 26.9993Z" fill="black"/>
<path d="M37.3728 26.3125H36.4684C36.4301 26.5359 36.399 26.764 36.3774 26.9993H37.2795C37.2962 26.7617 37.3273 26.5311 37.3728 26.3125Z" fill="black"/>
<path d="M37.3727 26.3125C37.3297 26.5335 37.2986 26.7617 37.2794 26.9993H41.2919C41.2751 26.7617 41.244 26.5311 41.1985 26.3125H37.3703H37.3727Z" fill="black"/>
</g>
<defs>
<clipPath id="clip0_946_753">
<rect width="61" height="58" fill="white"/>
</clipPath>
</defs>
</svg>
