<svg width="33" height="34" viewBox="0 0 33 34" fill="none" xmlns="http://www.w3.org/2000/svg">
<path d="M2.32739 30.764H4.75644L25.2142 10.3062L22.7852 7.87718L2.32739 28.3349V30.764ZM30.113 8.78453L24.3475 2.93768L26.5325 0.752733C27.0343 0.25091 27.6019 0 28.2352 0C28.8686 0 29.4362 0.25091 29.9381 0.752733L32.3387 3.15333C32.8052 3.61989 33.0249 4.20104 32.9978 4.89677C32.9706 5.59254 32.7238 6.1737 32.2573 6.64026L30.113 8.78453ZM28.5384 10.3185L5.7655 33.0913H0V27.3259L22.7729 4.55296L28.5384 10.3185ZM24.0058 9.09782L22.7852 7.87718L25.2142 10.3062L24.0058 9.09782Z" fill="white"/>
</svg>
