<svg width="21" height="20" viewBox="0 0 21 20" fill="none" xmlns="http://www.w3.org/2000/svg">
<path d="M10.4052 9.22427C9.06578 9.22427 7.92852 8.77639 6.99347 7.88063C6.05842 6.98485 5.5909 5.89536 5.5909 4.61215C5.5909 3.32892 6.05842 2.23943 6.99347 1.34367C7.92852 0.447891 9.06578 0 10.4052 0C11.7447 0 12.882 0.447891 13.817 1.34367C14.7521 2.23943 15.2196 3.32892 15.2196 4.61215C15.2196 5.89536 14.7521 6.98485 13.817 7.88063C12.882 8.77639 11.7447 9.22427 10.4052 9.22427ZM0 19.3642V16.6519C0 16.196 0.141869 15.7568 0.425607 15.3343C0.709319 14.9119 1.10603 14.5461 1.61573 14.2371C2.96966 13.4913 4.39257 12.9195 5.88446 12.5218C7.37635 12.1241 8.88058 11.9253 10.3972 11.9253C11.9137 11.9253 13.4207 12.1241 14.9179 12.5218C16.4152 12.9195 17.8408 13.4913 19.1947 14.2371C19.7045 14.5213 20.1012 14.8809 20.3849 15.3157C20.6686 15.7506 20.8105 16.196 20.8105 16.6519V19.3642H0ZM2.0189 17.4301H18.7916V16.6519C18.7916 16.4949 18.7325 16.3472 18.6144 16.2088C18.4963 16.0704 18.3333 15.953 18.1256 15.8564C16.9947 15.2003 15.7727 14.7034 14.4597 14.3658C13.1467 14.0282 11.7952 13.8594 10.4052 13.8594C9.01523 13.8594 7.66373 14.0282 6.35075 14.3658C5.03777 14.7034 3.81583 15.2003 2.68491 15.8564C2.47585 15.9938 2.31259 16.1253 2.19513 16.2511C2.07764 16.3768 2.0189 16.5104 2.0189 16.6519V17.4301ZM10.4135 7.2902C11.1845 7.2902 11.8418 7.02719 12.3853 6.50118C12.9289 5.97519 13.2007 5.34287 13.2007 4.60423C13.2007 3.86561 12.9262 3.23594 12.3771 2.7152C11.828 2.19447 11.168 1.93411 10.397 1.93411C9.62598 1.93411 8.96869 2.1971 8.42513 2.72309C7.88157 3.2491 7.60979 3.88142 7.60979 4.62004C7.60979 5.35868 7.88431 5.98837 8.43336 6.5091C8.98243 7.02983 9.64247 7.2902 10.4135 7.2902Z" fill="black"/>
</svg>
